HIERARCHY
ROOT Hip
{
    OFFSET 0.0 0.0 0.0
    CHANNELS 6 Xposition Yposition Zposition Zrotation Xrotation Yrotation
    JOINT RightHip
    {
        OFFSET -6.757881164550781 0.0 0.0
        CHANNELS 3 Zrotation Xrotation Yrotation
        JOINT RightKnee
        {
            OFFSET 0.0 0.0 -29.099498748779297
            CHANNELS 3 Zrotation Xrotation Yrotation
            JOINT RightAnkle
            {
                OFFSET 0.0 0.0 -39.484283447265625
                CHANNELS 3 Zrotation Xrotation Yrotation
                End Site
                {
                    OFFSET 0.0 -15.793712615966797 0.0
                }
            }
        }
    }
    JOINT LeftHip
    {
        OFFSET 6.757881164550781 0.0 0.0
        CHANNELS 3 Zrotation Xrotation Yrotation
        JOINT LeftKnee
        {
            OFFSET 0.0 0.0 -29.099498748779297
            CHANNELS 3 Zrotation Xrotation Yrotation
            JOINT LeftAnkle
            {
                OFFSET 0.0 0.0 -39.484283447265625
                CHANNELS 3 Zrotation Xrotation Yrotation
                End Site
                {
                    OFFSET 0.0 -15.793712615966797 0.0
                }
            }
        }
    }
    JOINT Spine
    {
        OFFSET 0.0 0.0 24.281024932861328
        CHANNELS 3 Zrotation Xrotation Yrotation
        JOINT Thorax
        {
            OFFSET 0.0 0.0 27.791271209716797
            CHANNELS 3 Zrotation Xrotation Yrotation
            JOINT Neck
            {
                OFFSET 0.0 0.0 10.359114646911621
                CHANNELS 3 Zrotation Xrotation Yrotation
                End Site
                {
                    OFFSET 0.0 0.0 4.143645763397217
                }
            }
            JOINT LeftShoulder
            {
                OFFSET 7.6860880851745605 0.0 0.0
                CHANNELS 3 Zrotation Xrotation Yrotation
                JOINT LeftElbow
                {
                    OFFSET 12.994422912597656 0.0 0.0
                    CHANNELS 3 Zrotation Xrotation Yrotation
                    JOINT LeftWrist
                    {
                        OFFSET 19.790603637695312 0.0 0.0
                        CHANNELS 3 Zrotation Xrotation Yrotation
                        End Site
                        {
                            OFFSET 7.916241645812988 0.0 0.0
                        }
                    }
                }
            }
            JOINT RightShoulder
            {
                OFFSET -7.6860880851745605 0.0 0.0
                CHANNELS 3 Zrotation Xrotation Yrotation
                JOINT RightElbow
                {
                    OFFSET -12.994422912597656 0.0 0.0
                    CHANNELS 3 Zrotation Xrotation Yrotation
                    JOINT RightWrist
                    {
                        OFFSET -19.790603637695312 0.0 0.0
                        CHANNELS 3 Zrotation Xrotation Yrotation
                        End Site
                        {
                            OFFSET -7.916241645812988 0.0 0.0
                        }
                    }
                }
            }
        }
    }
}
MOTION
Frames: 9
Frame Time: 0.03333333333333333
0.00013346289051696658 -0.007802409585565329 -9.072766988538206e-05 141.21731110654815 -55.987085936128615 -142.33118271146665 54.69847000234935 -27.61455298471539 72.46496573554319 0.723548528333111 47.56287520729858 -7.465158627064761 3.531125038440127e-31 6.3611093629270335e-15 -6.3611093629270335e-15 45.19061712606979 -24.42783157619354 44.77288496493669 -15.945977573884822 33.009295513411324 8.489028553716214 -4.770832022195275e-15 2.648343778830095e-31 -6.3611093629270335e-15 -6.806252716357867 4.341025394975757 -1.3890332767031242 24.274002139930857 -1.697446345356439e-06 4.106532774390304e-06 -41.07008860120682 -9.421181020170456 -8.531501380747766 64.4945535664222 -31.084182531433314 75.19039940592951 -115.3643711858026 1.637833276450178e-06 -7.178984736948937e-07 1.7241821476758432e-34 4.969616689786746e-17 -3.975693351829397e-16 42.220360940073874 -39.92741135914585 35.20261192053028 10.052190297328197 6.012390804252102e-07 -1.4819902559926672e-06 1.9878466759146976e-15 -1.3793457181406746e-32 -7.951386703658791e-16
0.0001213971700053662 -0.008264617994427681 -0.00017985806334763765 141.02372989016416 -55.30295084216163 -143.4885786770992 55.240825019945994 -25.937713368336368 73.19930969933695 0.11902406617402118 46.57493752280595 -9.877546438543408 -3.975693351829396e-15 0.0 0.0 48.635873628497365 -23.92804058902423 43.92939900151947 -19.055769561939425 33.27737454701188 5.8262107928663305 0.0 0.0 -6.361109362927033e-15 -7.308315353220135 4.303621610199974 -2.4127142642474357 27.978533634250066 -1.9894611362215692e-06 1.3911093503241177e-06 -46.187636483251026 -10.619838665056141 -10.513526336380396 77.71362991064974 -33.40557373253603 81.79207968873325 -120.78321979656175 1.23768030488095e-06 -1.6223561126956901e-06 -1.1927080055488186e-15 0.0 0.0 45.48782840450551 -40.59346238663422 41.97537573790766 5.707520722138305 -4.537758784004351e-09 -5.93681289970455e-07 -2.4848083448933726e-15 -1.5902773407317584e-15 -1.5902773407317584e-15
-5.192850949242711e-06 -0.008996141143143177 -0.00029767374508082867 126.26021977034364 -58.498232422424906 -157.1060984334111 46.35780243048994 -22.081045129588993 69.13305208013564 -0.9887640879285918 41.54072670674425 -8.63518873836942 7.951386703658792e-16 0.0 0.0 48.728032617665775 -22.809098849030192 41.15888191400384 -21.042001846984146 31.796559894854784 1.5448180544506231 9.54166404439055e-15 1.059337511532038e-30 1.2722218725854067e-14 -5.064067459255785 2.830286113190767 -3.717503713604594 20.693466847709143 1.1560624421281767e-07 -1.8924071809492663e-06 -49.17337908680631 -10.808147675075473 -15.454996677972845 86.3554376492525 -35.24577717821377 88.45224846271586 -123.90580111733887 1.4158651005457633e-06 3.2441670015355286e-08 5.963540027744093e-16 1.9878466759146975e-16 -3.1805546814635164e-15 128.3693877266971 -57.449385523030514 109.772272918424 4.647897382517232 -2.249694889371275e-05 1.4657728683291355e-06 0.0 0.0 -6.3611093629270335e-15
0.00014728211681358516 -0.009749527089297771 -0.00035646092146635056 111.71644696767868 -60.09591218145285 -170.96473643093873 39.69513754467893 -18.26327296050638 68.73212668948807 -0.4737814664267301 40.21786879855727 -7.924780640426989 7.951386703658792e-15 -6.3611093629270335e-15 -6.361109362927033e-15 53.27672806288582 -22.440411976867495 39.474259177342624 -25.835216089693933 32.232278250062464 2.5770327458370006 3.1805546814635168e-15 -8.827812596100317e-32 -3.1805546814635168e-15 -1.7364071236089238 0.8958546847138713 -4.515578650479503 13.724103538083467 -2.288387383302583e-06 3.3533395538839568e-06 -55.43887446989826 -10.99988871605864 -17.73779496513114 97.20334125775194 -35.054693210348965 95.7724378767112 -128.86604802808802 1.5506389694046124e-06 2.015013898828315e-06 1.9878466759146977e-16 1.1034765745125397e-32 6.361109362927033e-15 11.002658684604691 -2.620999493518487 33.358921027825524 2.7237580441811895 2.2487441057861417e-05 1.0939440766289368e-06 1.5902773407317584e-15 0.0 0.0
0.0006277012289501727 -0.010057450272142887 -0.0004960960941389203 95.41919717959483 -59.869055362514 174.24406487275593 28.890529560899225 -13.106462919614131 67.81401794771199 0.11862268476987539 34.87923920127882 -8.050506534280295 0.0 0.0 0.0 54.64043006334097 -21.380662620968497 37.061235671345365 -24.550564572106094 27.626751914043467 4.362378162264128 1.5902773407317584e-15 3.1805546814635168e-15 -4.4139062980501586e-32 1.9445351948452796 -0.9352038247472709 -5.767557262912208 5.340224702564483 -3.728421902373649e-07 -1.4366608629879746e-06 -68.17776282375661 -9.019596511243279 -17.344973118852714 102.39456250107244 -35.61705740536438 99.11666515936294 -131.01329521107235 -1.240335444296355e-06 4.376491853772363e-06 0.0 4.969616689786745e-17 0.0 12.595849577831007 -13.066816695141798 36.255169281660834 10.183283751426101 -1.5424676101036884e-05 2.836674191931075e-06 2.3854160110976376e-15 0.0 0.0
0.00085723731899634 -0.01011932734400034 -0.0006469306536018848 81.71158518167158 -56.30994613939468 161.64937924184977 14.196128431599002 -6.430817551939181 66.63044086203536 0.27032546996466655 27.46377614195258 -9.436344755904006 -1.5902773407317584e-15 8.827812596100317e-32 -6.3611093629270335e-15 51.02284707045572 -19.57488010348179 31.242364983141428 -21.50130755137113 21.056012897118567 11.17557377991766 3.975693351829396e-15 -3.1805546814635168e-15 1.5902773407317584e-15 3.9718629057414367 -1.819295169734617 -5.771841231779437 0.3992896004721099 1.7125648892328014e-06 -3.026229411414002e-06 -77.26200717774184 -8.403063592251629 -19.653584991660153 101.38628795696903 -29.326402978780784 99.69942988029071 -138.8086833966971 3.1752498869135666e-06 -3.473903692672286e-06 0.0 0.0 0.0 12.99237478721063 -19.09097362903449 39.231380627568 11.295141727263994 2.248753343339971e-06 3.2679034482627372e-06 -5.565970692561154e-15 0.0 0.0
0.0004444817022886127 -0.009947818703949451 -0.0006978746387176216 58.46878788493923 -44.402730608999995 142.939498247209 -6.769796382960584 2.5911539042762928 62.1706062007698 -2.891740851210785 22.760300046577537 -2.8696694419674005 -1.5902773407317584e-15 4.4139062980501586e-32 -3.1805546814635168e-15 46.73513059087533 -15.615522342280975 29.545581766529953 -21.41398980285168 19.28581682377322 22.43244375513974 -2.3854160110976376e-15 3.310429723537619e-32 -1.5902773407317584e-15 8.126565829435437 -3.117059239678558 -4.687021495119744 -11.433685026073285 -4.0243053280882547e-07 -4.186429901140553e-07 -98.49897149169657 -4.494682766245316 -22.0159518205316 105.48264716250397 -19.05701857678731 101.33172852565556 -149.97243735350548 -1.8387261907460404e-06 -7.985929003549864e-07 0.0 -3.1805546814635164e-15 0.0 -20.675513904495105 8.311927616261364 42.18453792415738 4.656622807368476 4.821091683785356e-06 4.3830201563239083e-07 -1.5902773407317584e-15 0.0 0.0
-0.00016581689123995602 -0.009163173846900463 -0.0008010959136299789 39.05358638782364 -25.02200755640778 132.46178225232453 -34.53783277441715 13.408345611369826 62.03073395301787 -2.970595333534782 17.57237805912049 -2.467412386921079 3.1805546814635164e-15 1.7655625192200634e-31 6.361109362927033e-15 35.56978661519219 -13.689777708112592 31.71669830880752 -22.42230830935019 24.508372018413546 30.417883706353052 -2.5345045117912397e-15 -1.7586657906293602e-32 7.951386703658791e-16 11.422838607383529 -4.760699827885736 -4.139097322970211 -18.387359169780733 -1.4056063860395802e-06 1.6024638834266728e-06 -127.94298479527052 1.9045450836421565 -23.392556205153117 121.87810792632172 -13.021577881044774 96.91873013454801 -149.7099767269166 1.0409027477624959e-06 -1.639456632526811e-08 3.531125038440127e-31 6.361109362927033e-15 -6.361109362927033e-15 157.3249807182409 8.813114703940785 133.27687784697468 2.2552892090668553 2.225896069339462e-05 7.431894902969924e-06 0.0 0.0 -1.5902773407317584e-15
-0.0007755254046060145 -0.00920126959681511 -0.0008745146915316582 25.876025619827608 -1.355707835504325 131.59029241270463 -60.1265161380727 22.816479877084166 59.842833078836634 -5.219334836921727 16.052441087816902 5.440951355851117 -3.1805546814635168e-15 0.0 0.0 20.949148176513173 -9.783249455988607 31.390466171035147 -27.847546153153523 34.152417809662744 38.98574899682757 -1.5902773407317584e-15 1.1034765745125397e-32 -7.951386703658792e-16 9.140328086651603 -4.407705303817573 -1.8922972296595781 -19.662708963020883 1.7626443380893003e-06 -8.638597815289793e-07 -164.31142544075036 10.367014730091713 -22.035744964237562 124.487255866353 -19.833599092183867 85.55325677056983 -152.0314527005885 1.3394674821875806e-06 1.1981664243668315e-06 0.0 0.0 3.1805546814635168e-15 120.14528269365427 -8.498511706707216 128.72455887400767 6.256865097013294 -5.1068194783899e-07 8.238201327693462e-07 6.3611093629270335e-15 -8.827812596100317e-32 -1.5902773407317584e-15
